<svg id="visual" viewBox="0 0 1920 1080" width="1920" height="1080" xmlns="http://www.w3.org/2000/svg" xmlns:xlink="http://www.w3.org/1999/xlink" version="1.1"><rect x="0" y="0" width="1920" height="1080" fill="#001220"></rect><path d="M0 742L45.7 751.8C91.3 761.7 182.7 781.3 274.2 765.8C365.7 750.3 457.3 699.7 548.8 674C640.3 648.3 731.7 647.7 823 660.5C914.3 673.3 1005.7 699.7 1097 726.3C1188.3 753 1279.7 780 1371.2 772.3C1462.7 764.7 1554.3 722.3 1645.8 713.8C1737.3 705.3 1828.7 730.7 1874.3 743.3L1920 756L1920 1081L1874.3 1081C1828.7 1081 1737.3 1081 1645.8 1081C1554.3 1081 1462.7 1081 1371.2 1081C1279.7 1081 1188.3 1081 1097 1081C1005.7 1081 914.3 1081 823 1081C731.7 1081 640.3 1081 548.8 1081C457.3 1081 365.7 1081 274.2 1081C182.7 1081 91.3 1081 45.7 1081L0 1081Z" fill="#6600ff"></path><path d="M0 815L45.7 810.3C91.3 805.7 182.7 796.3 274.2 799.8C365.7 803.3 457.3 819.7 548.8 813.7C640.3 807.7 731.7 779.3 823 765.3C914.3 751.3 1005.7 751.7 1097 754.8C1188.3 758 1279.7 764 1371.2 782.3C1462.7 800.7 1554.3 831.3 1645.8 834.2C1737.3 837 1828.7 812 1874.3 799.5L1920 787L1920 1081L1874.3 1081C1828.7 1081 1737.3 1081 1645.8 1081C1554.3 1081 1462.7 1081 1371.2 1081C1279.7 1081 1188.3 1081 1097 1081C1005.7 1081 914.3 1081 823 1081C731.7 1081 640.3 1081 548.8 1081C457.3 1081 365.7 1081 274.2 1081C182.7 1081 91.3 1081 45.7 1081L0 1081Z" fill="#9c58ff"></path><path d="M0 837L45.7 830.7C91.3 824.3 182.7 811.7 274.2 818.7C365.7 825.7 457.3 852.3 548.8 866.7C640.3 881 731.7 883 823 881C914.3 879 1005.7 873 1097 872C1188.3 871 1279.7 875 1371.2 866.2C1462.7 857.3 1554.3 835.7 1645.8 829C1737.3 822.3 1828.7 830.7 1874.3 834.8L1920 839L1920 1081L1874.3 1081C1828.7 1081 1737.3 1081 1645.8 1081C1554.3 1081 1462.7 1081 1371.2 1081C1279.7 1081 1188.3 1081 1097 1081C1005.7 1081 914.3 1081 823 1081C731.7 1081 640.3 1081 548.8 1081C457.3 1081 365.7 1081 274.2 1081C182.7 1081 91.3 1081 45.7 1081L0 1081Z" fill="#c391ff"></path><path d="M0 901L45.7 913.7C91.3 926.3 182.7 951.7 274.2 956.2C365.7 960.7 457.3 944.3 548.8 932C640.3 919.7 731.7 911.3 823 901.7C914.3 892 1005.7 881 1097 887.5C1188.3 894 1279.7 918 1371.2 929.3C1462.7 940.7 1554.3 939.3 1645.8 936.3C1737.3 933.3 1828.7 928.7 1874.3 926.3L1920 924L1920 1081L1874.3 1081C1828.7 1081 1737.3 1081 1645.8 1081C1554.3 1081 1462.7 1081 1371.2 1081C1279.7 1081 1188.3 1081 1097 1081C1005.7 1081 914.3 1081 823 1081C731.7 1081 640.3 1081 548.8 1081C457.3 1081 365.7 1081 274.2 1081C182.7 1081 91.3 1081 45.7 1081L0 1081Z" fill="#e3c8ff"></path><path d="M0 1018L45.7 1012.5C91.3 1007 182.7 996 274.2 998.2C365.7 1000.3 457.3 1015.7 548.8 1009.2C640.3 1002.7 731.7 974.3 823 960.2C914.3 946 1005.7 946 1097 954.8C1188.3 963.7 1279.7 981.3 1371.2 995.7C1462.7 1010 1554.3 1021 1645.8 1016.8C1737.3 1012.7 1828.7 993.3 1874.3 983.7L1920 974L1920 1081L1874.3 1081C1828.7 1081 1737.3 1081 1645.8 1081C1554.3 1081 1462.7 1081 1371.2 1081C1279.7 1081 1188.3 1081 1097 1081C1005.7 1081 914.3 1081 823 1081C731.7 1081 640.3 1081 548.8 1081C457.3 1081 365.7 1081 274.2 1081C182.7 1081 91.3 1081 45.7 1081L0 1081Z" fill="#ffffff"></path></svg>